<svg width="32" height="30" viewBox="0 0 32 30" fill="none" xmlns="http://www.w3.org/2000/svg">
<path d="M26.2009 29.4137C25.5532 29.3873 24.9415 29.1061 24.4972 28.6305C24.0529 28.1549 23.8114 27.5227 23.8245 26.8697C23.8376 26.2167 24.1043 25.5949 24.5673 25.1377C25.0303 24.6805 25.6527 24.4245 26.301 24.4245C26.9493 24.4245 27.5717 24.6805 28.0347 25.1377C28.4977 25.5949 28.7644 26.2167 28.7775 26.8697C28.7906 27.5227 28.549 28.1549 28.1047 28.6305C27.6604 29.1061 27.0488 29.3873 26.401 29.4137H26.2009ZM6.75293 26.7135C6.75293 26.1795 6.91011 25.6574 7.20459 25.2134C7.49907 24.7694 7.91764 24.4233 8.40735 24.2189C8.89705 24.0145 9.43594 23.9611 9.95581 24.0652C10.4757 24.1694 10.9532 24.4266 11.328 24.8042C11.7028 25.1818 11.9581 25.663 12.0615 26.1868C12.1649 26.7105 12.1118 27.2534 11.9089 27.7468C11.7061 28.2402 11.3626 28.6619 10.9219 28.9586C10.4812 29.2553 9.96304 29.4137 9.43298 29.4137C9.08087 29.4139 8.73212 29.3443 8.40674 29.2087C8.08136 29.0731 7.78569 28.8743 7.53662 28.6235C7.28755 28.3728 7.09001 28.075 6.9552 27.7473C6.82039 27.4196 6.75098 27.0683 6.75098 26.7135H6.75293ZM10.553 21.0372C10.2935 21.0379 10.0409 20.9529 9.83411 20.7951C9.62727 20.6373 9.47758 20.4154 9.40796 20.1636L4.57495 2.57734H1.18201C0.868521 2.57734 0.567859 2.45187 0.346191 2.22854C0.124523 2.0052 0 1.7023 0 1.38645C0 1.07061 0.124523 0.767701 0.346191 0.544365C0.567859 0.32103 0.868521 0.195562 1.18201 0.195562H5.46301C5.7225 0.194743 5.97504 0.279906 6.18176 0.437934C6.38848 0.595962 6.53784 0.818087 6.60693 1.07009L11.4399 18.6564H24.6179L29.001 8.5328H14.401C14.2428 8.53744 14.0854 8.51005 13.9379 8.45226C13.7904 8.39447 13.6559 8.30746 13.5424 8.19637C13.4288 8.08528 13.3386 7.95237 13.277 7.80552C13.2154 7.65866 13.1836 7.50085 13.1836 7.34141C13.1836 7.18197 13.2154 7.02415 13.277 6.87729C13.3386 6.73044 13.4288 6.59753 13.5424 6.48644C13.6559 6.37536 13.7904 6.28834 13.9379 6.23055C14.0854 6.17277 14.2428 6.14538 14.401 6.15001H30.814C31.0097 6.14997 31.2022 6.19904 31.3744 6.2928C31.5465 6.38655 31.6928 6.52204 31.7999 6.68702C31.9078 6.85254 31.9734 7.04236 31.9908 7.23959C32.0083 7.43682 31.9771 7.63533 31.9 7.81746L26.495 20.3228C26.4026 20.535 26.251 20.7156 26.0585 20.8424C25.866 20.9693 25.641 21.0369 25.411 21.0372H10.553Z" fill="#E8E8E8"/>
</svg>
