<svg width="29" height="30" viewBox="0 0 29 30" fill="none" xmlns="http://www.w3.org/2000/svg">
<path d="M14.5 20.2825C19 20.2825 22.656 15.7759 22.656 10.2385C22.656 4.70119 19 0.195557 14.5 0.195557C13.3631 0.217461 12.2463 0.501237 11.2351 1.02515C10.2239 1.54906 9.34507 2.2992 8.66602 3.21812C7.12663 5.22886 6.30819 7.70543 6.34399 10.2446C6.34399 15.7769 10 20.2825 14.5 20.2825ZM14.5 2.02219C18 2.02219 20.844 5.70872 20.844 10.2395C20.844 14.7704 17.998 18.4569 14.5 18.4569C11.002 18.4569 8.15603 14.7694 8.15503 10.2395C8.15403 5.70972 11 2.02219 14.5 2.02219ZM20.844 18.4569C20.6036 18.4569 20.373 18.5531 20.203 18.7244C20.033 18.8957 19.9375 19.128 19.9375 19.3702C19.9375 19.6124 20.033 19.8447 20.203 20.016C20.373 20.1873 20.6036 20.2835 20.844 20.2835C22.526 20.2854 24.1386 20.9594 25.3279 22.1577C26.5172 23.3559 27.1861 24.9806 27.188 26.6752C27.1875 26.9172 27.0918 27.149 26.922 27.3201C26.7522 27.4912 26.5221 27.5875 26.282 27.588H2.71997C2.47985 27.5875 2.24975 27.4912 2.07996 27.3201C1.91016 27.149 1.81449 26.9172 1.81396 26.6752C1.81608 24.9807 2.48517 23.3562 3.67444 22.158C4.86371 20.9597 6.47608 20.2857 8.15796 20.2835C8.39824 20.2835 8.62868 20.1873 8.79858 20.0162C8.96849 19.845 9.06396 19.6128 9.06396 19.3707C9.06396 19.1286 8.96849 18.8964 8.79858 18.7252C8.62868 18.5541 8.39824 18.4579 8.15796 18.4579C5.99541 18.4598 3.92201 19.3259 2.39258 20.8663C0.863144 22.4066 0.00264777 24.4954 0 26.6742C0.000794067 27.4005 0.287502 28.0969 0.797241 28.6104C1.30698 29.124 1.99811 29.4129 2.71899 29.4137H26.282C27.0027 29.4126 27.6936 29.1236 28.2031 28.6101C28.7126 28.0965 28.9992 27.4004 29 26.6742C28.9974 24.4957 28.1372 22.4071 26.6083 20.8666C25.0793 19.3262 23.0063 18.4595 20.844 18.4569Z" fill="#E8E8E8"/>
</svg>
